<svg width="67" height="64" viewBox="0 0 67 64" fill="none" xmlns="http://www.w3.org/2000/svg">
<path d="M15.4937 46.4885C18.425 44.5542 21.333 43.0706 24.2177 42.0375C27.1024 41.0044 30.1965 40.4879 33.5 40.4879C36.8035 40.4879 39.9092 41.0044 42.8172 42.0375C45.7252 43.0706 48.6448 44.5542 51.576 46.4885C53.6232 44.1146 55.0772 41.7188 55.938 39.3009C56.7988 36.8831 57.2291 34.3334 57.2291 31.6518C57.2291 25.2775 54.9609 19.9472 50.4245 15.6611C45.888 11.3749 40.2465 9.23179 33.5 9.23179C26.7535 9.23179 21.112 11.3749 16.5755 15.6611C12.039 19.9472 9.77081 25.2775 9.77081 31.6518C9.77081 34.3334 10.2128 36.8831 11.0969 39.3009C11.9809 41.7188 13.4465 44.1146 15.4937 46.4885ZM33.487 33.63C30.797 33.63 28.5331 32.7577 26.6953 31.0131C24.8574 29.2684 23.9385 27.1253 23.9385 24.5838C23.9385 22.0423 24.8618 19.9033 26.7083 18.1668C28.5548 16.4304 30.823 15.5621 33.513 15.5621C36.2029 15.5621 38.4668 16.4345 40.3047 18.1791C42.1425 19.9237 43.0614 22.0668 43.0614 24.6083C43.0614 27.1499 42.1382 29.2889 40.2917 31.0253C38.4452 32.7618 36.177 33.63 33.487 33.63ZM33.5326 58.0282C29.6956 58.0282 26.0788 57.3358 22.6823 55.9511C19.2857 54.5663 16.3196 52.676 13.7838 50.2801C11.2481 47.8843 9.24738 45.0869 7.78175 41.8881C6.31613 38.6892 5.58331 35.2713 5.58331 31.6342C5.58331 27.9972 6.31613 24.5851 7.78175 21.3979C9.24738 18.2108 11.2481 15.4193 13.7838 13.0234C16.3196 10.6275 19.2803 8.73724 22.6659 7.35247C26.0516 5.96771 29.6691 5.27533 33.5185 5.27533C37.368 5.27533 40.9793 5.96771 44.3526 7.35247C47.7258 8.73724 50.6804 10.6275 53.2161 13.0234C55.7519 15.4193 57.7526 18.2115 59.2182 21.4C60.6838 24.5886 61.4166 27.9956 61.4166 31.6209C61.4166 35.2463 60.6838 38.6635 59.2182 41.8726C57.7526 45.0818 55.7519 47.8843 53.2161 50.2801C50.6804 52.676 47.7251 54.5663 44.3504 55.9511C40.9756 57.3358 37.3697 58.0282 33.5326 58.0282ZM33.5 54.0717C36.059 54.0717 38.5599 53.72 41.0026 53.0167C43.4453 52.3133 45.8531 51.0824 48.226 49.324C45.8531 47.7414 43.4337 46.5325 40.9677 45.6972C38.5017 44.862 36.0125 44.4443 33.5 44.4443C30.9875 44.4443 28.4982 44.862 26.0323 45.6972C23.5663 46.5325 21.1469 47.7414 18.7739 49.324C21.1469 51.0824 23.5547 52.3133 25.9974 53.0167C28.4401 53.72 30.941 54.0717 33.5 54.0717ZM33.5 29.6735C35.0819 29.6735 36.3731 29.201 37.3734 28.2558C38.3738 27.3106 38.8739 26.0907 38.8739 24.5961C38.8739 23.1014 38.3738 21.8815 37.3734 20.9363C36.3731 19.9912 35.0819 19.5186 33.5 19.5186C31.918 19.5186 30.6269 19.9912 29.6265 20.9363C28.6262 21.8815 28.126 23.1014 28.126 24.5961C28.126 26.0907 28.6262 27.3106 29.6265 28.2558C30.6269 29.201 31.918 29.6735 33.5 29.6735Z" fill="#C164ED"/>
</svg>
